# xmcd
#
# Track frame offsets: 
#        182
#        14020
#        27272
#        41395
#        53762
#        66897
#        78322
#        91515
#        103787
#        116385
#        129675
#        143082
#        153380
#        167460
#        180007
#        192822
#        204600
#        214920
#        228860
#        239177
#        250970
#        261922
#
# Disc length: 3631 seconds
#
# Revision: 4
# Processed by: cddbd v1.5.2PL0 Copyright (c) Steve Scherf et al.
# Submitted via: ExactAudioCopyFreeDBPlugin 1.0
#
DISCID=260e2d16
DTITLE=Muddy Waters - The Complete Muddy Waters on Chess Records, 1947
DTITLE=1967 [Charly Red Box]
DYEAR=1992
DGENRE=Blues
TTITLE0=Lonesome Road Blues
TTITLE1=Moppers Blues
TTITLE2=Take the Bitter with the Sweet
TTITLE3=She's Into Something
TTITLE4=Southbound Train
TTITLE5=Just a Dream
TTITLE6=I Feel So Good
TTITLE7=Hey Hey
TTITLE8=Love Affair
TTITLE9=Recipe for Love
TTITLE10=Baby I Done Got Wise
TTITLE11=Tell Me Baby
TTITLE12=When I Get to Thinking
TTITLE13=Double Trouble
TTITLE14=Woman Wanted
TTITLE15=Read Way Back
TTITLE16=I'm Your Doctor
TTITLE17=Deep Down in My Heart
TTITLE18=Tiger in Your Tank
TTITLE19=Soon Forgotten
TTITLE20=Meanest Woman
TTITLE21=I Got My Brand on You
EXTD=
EXTT0=
EXTT1=
EXTT2=
EXTT3=
EXTT4=
EXTT5=
EXTT6=
EXTT7=
EXTT8=
EXTT9=
EXTT10=
EXTT11=
EXTT12=
EXTT13=
EXTT14=
EXTT15=
EXTT16=
EXTT17=
EXTT18=
EXTT19=
EXTT20=
EXTT21=
PLAYORDER=
